General
Complete name                  : F:internet download managerVTS_03_2.mp4
Format                         : MPEG-4
Format profile                 : Base Media
Codec ID                       : isom
File size                      : 287 MiB
Duration                       : 32mn 27s
Overall bit rate mode          : Variable
Overall bit rate               : 1 235 Kbps

Video
ID                             : 1
Format                         : MPEG-4 Visual
Format profile                 : Simple@L1
Format settings, BVOP          : No
Format settings, QPel          : No
Format settings, GMC           : No warppoints
Format settings, Matrix        : Default (H.263)
Codec ID                       : 20
Duration                       : 32mn 27s
Bit rate                       : 1 103 Kbps
Width                          : 720 pixels
Height                         : 576 pixels
Display aspect ratio           : 16:9
Frame rate mode                : Constant
Frame rate                     : 25.000 fps
Standard                       : PAL
Color space                    : YUV
Chroma subsampling             : 4:2:0
Bit depth                      : 8 bits
Scan type                      : Progressive
Compression mode               : Lossy
Bits/(Pixel*Frame)             : 0.106
Stream size                    : 256 MiB (89%)
Writing library                : Lavc51.54.0

Audio
ID                             : 2
Format                         : AAC
Format/Info                    : Advanced Audio Codec
Format profile                 : LC
Codec ID                       : 40
Duration                       : 32mn 26s
Bit rate mode                  : Variable
Bit rate                       : 128 Kbps
Channel(s)                     : 2 channels
Channel positions              : Front: L R
Sampling rate                  : 48.0 KHz
Compression mode               : Lossy
Stream size                    : 29.7 MiB (10%)

